<svg xmlns="http://www.w3.org/2000/svg" width="695" height="1190" viewBox="0 0 695 1190" font-family="Hiragino Sans, Noto Sans JP, sans-serif">
<rect width="695" height="1190" fill="#fbfbfa"/>
<text x="40" y="26" font-size="16" fill="#222">split-nest-deep[spread] / elk — ports FIXED_POS 辺ごと（中央 ±15% に分散）+ MODEL_ORDER + INCLUDE_CHILDREN</text>
<defs>
<marker id="ah-normal" viewBox="0 0 10 10" refX="9" refY="5" markerWidth="7" markerHeight="7" orient="auto-start-reverse"><path d="M0,0 L10,5 L0,10 z" fill="#3b6ea8"/></marker>
<marker id="ah-exception" viewBox="0 0 10 10" refX="9" refY="5" markerWidth="7" markerHeight="7" orient="auto-start-reverse"><path d="M0,0 L10,5 L0,10 z" fill="#c2543b"/></marker>
<marker id="ah-loopback" viewBox="0 0 10 10" refX="9" refY="5" markerWidth="7" markerHeight="7" orient="auto-start-reverse"><path d="M0,0 L10,5 L0,10 z" fill="#9a6fb0"/></marker>
</defs>
<rect x="185.5" y="148" width="469" height="656" rx="8" fill="#eef1f5" stroke="#9aa7b5" stroke-width="1.2"/>
<text x="193.5" y="163" font-size="11" fill="#556">受注プロセス</text>
<rect x="259.5" y="321" width="383" height="446" rx="8" fill="#eef1f5" stroke="#9aa7b5" stroke-width="1.2"/>
<text x="267.5" y="336" font-size="11" fill="#556">受付部門</text>
<rect x="443.5" y="474" width="187" height="256" rx="8" fill="#eef1f5" stroke="#9aa7b5" stroke-width="1.2"/>
<text x="451.5" y="489" font-size="11" fill="#556">申込受付</text>
<polyline points="532.0,121.0 532.0,143.0 532.0,316.0 532.0,469.0 532.0,496.0" fill="none" stroke="#3b6ea8" stroke-width="1.6" marker-end="url(#ah-normal)"/>
<polyline points="340.0,238.0 340.0,248.0 197.5,248.0 197.5,809.0 197.5,903.0" fill="none" stroke="#3b6ea8" stroke-width="1.6" marker-end="url(#ah-normal)"/>
<polyline points="205.5,951.0 205.5,1023.0" fill="none" stroke="#3b6ea8" stroke-width="1.6" marker-end="url(#ah-normal)"/>
<polyline points="205.5,1071.0 205.5,1103.0" fill="none" stroke="#3b6ea8" stroke-width="1.6" marker-end="url(#ah-normal)"/>
<polyline points="548.0,612.0 548.0,622.0 617.5,622.0 617.5,735.0 617.5,772.0 617.5,809.0 617.5,862.0 617.5,982.0 617.5,1007.0 221.5,1007.0 221.5,1023.0" fill="none" stroke="#c2543b" stroke-width="1.6" stroke-dasharray="6 4" marker-end="url(#ah-exception)"/>
<polyline points="372.0,238.0 372.0,258.0 208.5,258.0 208.5,809.0 208.5,837.0 363.5,837.0 363.5,903.0" fill="none" stroke="#c2543b" stroke-width="1.6" stroke-dasharray="6 4" marker-end="url(#ah-exception)"/>
<polyline points="348.0,411.0 348.0,772.0 348.0,809.0 348.0,825.0 438.5,825.0 438.5,887.0 379.5,887.0 379.5,903.0" fill="none" stroke="#c2543b" stroke-width="1.6" stroke-dasharray="6 4" marker-end="url(#ah-exception)"/>
<polyline points="221.5,1071.0 221.5,1087.0 113.0,1087.0 113.0,1047.0 113.0,927.0 113.0,887.0 213.5,887.0 213.5,903.0" fill="none" stroke="#9a6fb0" stroke-width="1.6" stroke-dasharray="3 3" marker-end="url(#ah-loopback)"/>
<polyline points="332.0,411.0 332.0,772.0 332.0,782.0 249.5,782.0 249.5,268.0 522.0,268.0 522.0,180.0 356.0,180.0 356.0,190.0" fill="none" stroke="#3b6ea8" stroke-width="1.6" marker-end="url(#ah-normal)"/>
<polyline points="356.0,238.0 356.0,316.0 356.0,363.0" fill="none" stroke="#9a6fb0" stroke-width="1.6" stroke-dasharray="3 3" marker-end="url(#ah-loopback)"/>
<polyline points="532.0,718.0 532.0,735.0 532.0,745.0 433.5,745.0 433.5,353.0 340.0,353.0 340.0,363.0" fill="none" stroke="#3b6ea8" stroke-width="1.6" marker-end="url(#ah-normal)"/>
<polyline points="364.0,411.0 364.0,421.0 543.0,421.0 543.0,459.0 548.0,459.0 548.0,469.0 548.0,496.0" fill="none" stroke="#9a6fb0" stroke-width="1.6" stroke-dasharray="3 3" marker-end="url(#ah-loopback)"/>
<polyline points="540.0,544.0 540.0,564.0" fill="none" stroke="#3b6ea8" stroke-width="1.6" marker-end="url(#ah-normal)"/>
<polyline points="532.0,612.0 532.0,670.0" fill="none" stroke="#3b6ea8" stroke-width="1.6" marker-end="url(#ah-normal)"/>
<rect x="455.5" y="74" width="152" height="46" rx="6" fill="#ffffff" stroke="#6b7b8c" stroke-width="1.4"/>
<text x="531.5" y="101" font-size="12" fill="#222" text-anchor="middle">申込発生</text>
<rect x="463.5" y="497" width="152" height="46" rx="6" fill="#ffffff" stroke="#6b7b8c" stroke-width="1.4"/>
<text x="539.5" y="524" font-size="12" fill="#222" text-anchor="middle">フォーム処理</text>
<rect x="463.5" y="565" width="152" height="46" rx="6" fill="#ffffff" stroke="#6b7b8c" stroke-width="1.4"/>
<text x="539.5" y="592" font-size="12" fill="#222" text-anchor="middle">重複判定</text>
<rect x="455.5" y="671" width="152" height="46" rx="6" fill="#ffffff" stroke="#6b7b8c" stroke-width="1.4"/>
<text x="531.5" y="698" font-size="12" fill="#222" text-anchor="middle">顧客登録</text>
<rect x="271.5" y="364" width="152" height="46" rx="6" fill="#ffffff" stroke="#6b7b8c" stroke-width="1.4"/>
<text x="347.5" y="391" font-size="12" fill="#222" text-anchor="middle">内容確認</text>
<rect x="279.5" y="191" width="152" height="46" rx="6" fill="#ffffff" stroke="#6b7b8c" stroke-width="1.4"/>
<text x="355.5" y="218" font-size="12" fill="#222" text-anchor="middle">審査部門</text>
<rect x="129" y="904" width="152" height="46" rx="6" fill="#ffffff" stroke="#6b7b8c" stroke-width="1.4"/>
<text x="205" y="931" font-size="12" fill="#222" text-anchor="middle">手配プロセス</text>
<rect x="137" y="1024" width="152" height="46" rx="6" fill="#ffffff" stroke="#6b7b8c" stroke-width="1.4"/>
<text x="213" y="1051" font-size="12" fill="#222" text-anchor="middle">完了プロセス</text>
<rect x="129" y="1104" width="152" height="46" rx="6" fill="#ffffff" stroke="#6b7b8c" stroke-width="1.4"/>
<text x="205" y="1131" font-size="12" fill="#222" text-anchor="middle">完了</text>
<rect x="295" y="904" width="152" height="46" rx="6" fill="#ffffff" stroke="#6b7b8c" stroke-width="1.4"/>
<text x="371" y="931" font-size="12" fill="#222" text-anchor="middle">謝絶</text>
<rect x="152.5" y="853" width="39" height="18" rx="3" fill="#ffffff" fill-opacity="0.92" stroke="#c8cdd4" stroke-width="0.8"/>
<text x="172" y="866" font-size="11" fill="#444" text-anchor="middle">4 件</text>
<rect x="171.5" y="973" width="28" height="18" rx="3" fill="#ffffff" fill-opacity="0.92" stroke="#c8cdd4" stroke-width="0.8"/>
<text x="185.5" y="986" font-size="11" fill="#444" text-anchor="middle">OK</text>
<rect x="577.5" y="918" width="34" height="18" rx="3" fill="#ffffff" fill-opacity="0.92" stroke="#c8cdd4" stroke-width="0.8"/>
<text x="594.5" y="931" font-size="11" fill="#444" text-anchor="middle">重複</text>
<rect x="329.5" y="853" width="28" height="18" rx="3" fill="#ffffff" fill-opacity="0.92" stroke="#c8cdd4" stroke-width="0.8"/>
<text x="343.5" y="866" font-size="11" fill="#444" text-anchor="middle">NG</text>
<rect x="376.5" y="853" width="56" height="18" rx="3" fill="#ffffff" fill-opacity="0.92" stroke="#c8cdd4" stroke-width="0.8"/>
<text x="404.5" y="866" font-size="11" fill="#444" text-anchor="middle">確認不可</text>
<rect x="40" y="973" width="67" height="18" rx="3" fill="#ffffff" fill-opacity="0.92" stroke="#c8cdd4" stroke-width="0.8"/>
<text x="73.5" y="986" font-size="11" fill="#444" text-anchor="middle">未開通あり</text>
<rect x="219.5" y="278" width="28" height="18" rx="3" fill="#ffffff" fill-opacity="0.92" stroke="#c8cdd4" stroke-width="0.8"/>
<text x="233.5" y="291" font-size="11" fill="#444" text-anchor="middle">OK</text>
<rect x="359" y="278" width="56" height="18" rx="3" fill="#ffffff" fill-opacity="0.92" stroke="#c8cdd4" stroke-width="0.8"/>
<text x="387" y="291" font-size="11" fill="#444" text-anchor="middle">不備あり</text>
<rect x="546" y="431" width="45" height="18" rx="3" fill="#ffffff" fill-opacity="0.92" stroke="#c8cdd4" stroke-width="0.8"/>
<text x="568.5" y="444" font-size="11" fill="#444" text-anchor="middle">再入力</text>
<rect x="496" y="632" width="34" height="18" rx="3" fill="#ffffff" fill-opacity="0.92" stroke="#c8cdd4" stroke-width="0.8"/>
<text x="513" y="645" font-size="11" fill="#444" text-anchor="middle">新規</text>
</svg>